<svg xmlns="http://www.w3.org/2000/svg" width="100" height="100" viewBox="0 0 100 100"><defs><clipPath id="c"><circle cx="50" cy="50" r="47"/></clipPath></defs><circle cx="50" cy="50" r="48" fill="#34142e" stroke="#f57f9b" stroke-width="3"/><g clip-path="url(#c)"><path d="M8 100Q10 73 34 72h32q25 2 27 28" fill="#f57f9b"/><path d="M28 25Q50 12 72 25v30Q70 76 50 79 28 73 28 55z" fill="#e1bdc4"/><path d="M23 53V24Q50 0 77 24v38L65 38 61 21 39 26 30 65z" fill="#281624"/><path d="M33 43l10 2m14 0 10-2" stroke="#851c4c" stroke-width="4"/><path d="M40 62q10 8 20 0" stroke="#9e294e" fill="none" stroke-width="3"/><path d="M44 63l3 5 2-5m5 0 2 5 2-5" fill="white"/></g></svg>