<svg xmlns="http://www.w3.org/2000/svg" width="100" height="100" viewBox="0 0 100 100"><defs><clipPath id="c"><circle cx="50" cy="50" r="47"/></clipPath></defs><circle cx="50" cy="50" r="48" fill="#2b2033" stroke="#c9a8e0" stroke-width="3"/><g clip-path="url(#c)"><path d="M14 100Q16 74 36 70h28q20 4 22 30" fill="#8a6d52"/><path d="M36 74l28 8M38 86l26-6" stroke="#5b4636" stroke-width="2" stroke-dasharray="3 3"/><ellipse cx="50" cy="44" rx="25" ry="27" fill="#c9a77e"/><path d="M26 38Q30 16 50 16t24 22" fill="none" stroke="#6b4f3a" stroke-width="6"/><path d="M36 38l8 8m0-8l-8 8" stroke="#2b2033" stroke-width="3"/><circle cx="62" cy="42" r="5" fill="#2b2033"/><path d="M38 58h24" stroke="#2b2033" stroke-width="2"/><path d="M41 55v6m6-6v6m6-6v6m6-6v6" stroke="#2b2033" stroke-width="1.6"/><path d="M58 24l22-14" stroke="#e8e2d0" stroke-width="2.5"/><circle cx="58" cy="24" r="3.5" fill="#d64b5b"/><path d="M30 60l-18 10" stroke="#e8e2d0" stroke-width="2"/><circle cx="30" cy="60" r="3" fill="#6fb3d2"/></g></svg>
